<?xml version="1.0" encoding="UTF-8" standalone="no"?>
<svg
   fill="#000000"
   viewBox="0 0 24 24"
   width="48px"
   height="48px"
   version="1.1"
   id="svg1"
   sodipodi:docname="multiselect on.svg"
   inkscape:version="1.3.2 (091e20e, 2023-11-25, custom)"
   xml:space="preserve"
   xmlns:inkscape="http://www.inkscape.org/namespaces/inkscape"
   xmlns:sodipodi="http://sodipodi.sourceforge.net/DTD/sodipodi-0.dtd"
   xmlns="http://www.w3.org/2000/svg"
   xmlns:svg="http://www.w3.org/2000/svg"><defs
     id="defs1" /><sodipodi:namedview
     id="namedview1"
     pagecolor="#ffffff"
     bordercolor="#999999"
     borderopacity="1"
     inkscape:showpageshadow="2"
     inkscape:pageopacity="0"
     inkscape:pagecheckerboard="0"
     inkscape:deskcolor="#d1d1d1"
     showgrid="false"
     inkscape:zoom="8.1979167"
     inkscape:cx="16.894536"
     inkscape:cy="27.324015"
     inkscape:window-width="1800"
     inkscape:window-height="1046"
     inkscape:window-x="2391"
     inkscape:window-y="-9"
     inkscape:window-maximized="1"
     inkscape:current-layer="svg1" /><path
     style="fill:#bfbfbf;stroke-width:1.02515;fill-opacity:1;opacity:1"
     d="M 7.26361,21.92568 C 6.500484,21.758623 5.768121,21.201369 5.432012,20.532019 l -0.09526,-0.189713 h 7.02246 c 7.705645,0 7.286171,0.01466 7.626037,-0.266494 0.08985,-0.07433 0.210359,-0.230583 0.267796,-0.34723 l 0.104431,-0.212088 0.02232,-7.110258 0.02232,-7.110257 0.267796,0.160437 c 0.555354,0.332711 1.004332,0.8921381 1.217242,1.5166777 l 0.12174,0.3571071 v 6.1824242 6.182424 l -0.104391,0.334788 c -0.13998,0.448924 -0.322597,0.757819 -0.657117,1.111501 -0.320068,0.3384 -0.632358,0.540505 -1.098118,0.710666 l -0.327377,0.119605 -6.136999,0.0082 c -5.104808,0.0068 -6.184812,-0.0024 -6.421272,-0.05408 z M 4.088846,18.844525 C 3.148851,18.642818 2.324514,17.837526 2.080247,16.882328 1.993299,16.542327 1.991106,16.384752 1.991106,10.472266 c 0,-4.1796794 0.01503,-6.1349257 0.04839,-6.2980375 C 2.066106,4.0441267 2.174799,3.7568942 2.281022,3.5359336 2.601471,2.8693572 3.154523,2.3880627 3.884495,2.140505 L 4.245056,2.0182276 h 6.159316 c 5.839784,0 6.174365,0.0042 6.449428,0.081925 0.76381,0.2156787 1.411966,0.7464357 1.731611,1.417968 0.09815,0.2062098 0.204354,0.4854066 0.236001,0.6204377 0.04541,0.1937513 0.05813,1.5301111 0.06036,6.3386567 0.0027,5.762598 -0.0015,6.108682 -0.07842,6.379492 -0.148499,0.523447 -0.337846,0.846847 -0.722155,1.23343 -0.408022,0.410437 -0.736738,0.603253 -1.254001,0.735563 -0.335342,0.08578 -0.509711,0.08809 -6.396491,0.08463 -4.997546,-0.003 -6.102289,-0.01439 -6.341866,-0.0658 z m 12.419146,-1.645959 c 0.267046,-0.09531 0.48067,-0.286717 0.59566,-0.533708 l 0.106343,-0.228416 4.36e-4,-5.971825 C 17.210911,3.8728029 17.230711,4.3276981 16.92965,4.0103468 16.85112,3.9275608 16.706517,3.8225397 16.608325,3.7769751 16.437245,3.6975821 16.179678,3.6940861 10.436418,3.6931531 5.450649,3.692337 4.41835,3.7024831 4.296173,3.7535481 4.063137,3.8509331 3.840288,4.0747511 3.736787,4.3153783 l -0.09554,0.2221078 0.01179,5.9941199 c 0.01318,6.698814 -0.01743,6.099857 0.328885,6.436235 0.314317,0.3053 -0.08925,0.287207 6.444764,0.288936 4.830547,0.0012 5.944512,-0.0094 6.081299,-0.0582 z"
     id="path1" /><path
     style="fill:none;stroke:#bfbfbf;stroke-width:1.6063;stroke-linecap:round;stroke-linejoin:round;stroke-miterlimit:5;stroke-dasharray:none;stroke-dashoffset:4.28976;stroke-opacity:1;paint-order:normal;opacity:1"
     d="M 5.4668486,10.801466 8.7183369,14.052955 15.341737,7.4295522"
     id="path2" /></svg>
